<?xml version="1.0" encoding="utf-8" standalone="no"?>
<!DOCTYPE svg PUBLIC "-//W3C//DTD SVG 1.1//EN"
  "http://www.w3.org/Graphics/SVG/1.1/DTD/svg11.dtd">
<!-- Created with matplotlib (http://matplotlib.org/) -->
<svg height="367pt" version="1.1" viewBox="0 0 410 367" width="410pt" xmlns="http://www.w3.org/2000/svg" xmlns:xlink="http://www.w3.org/1999/xlink">
 <defs>
  <style type="text/css">
*{stroke-linecap:butt;stroke-linejoin:round;}
  </style>
 </defs>
 <g id="figure_1">
  <g id="patch_1">
   <path d="M 0 367.218125 
L 410.667452 367.218125 
L 410.667452 0 
L 0 0 
z
" style="fill:#ffffff;"/>
  </g>
  <g id="axes_1">
   <g id="PolyCollection_1">
    <defs>
     <path d="M 53.886908 -92.488691 
L 53.886908 -38.998125 
L 59.740055 -38.998125 
L 59.740055 -92.488691 
L 59.740055 -92.488691 
L 53.886908 -92.488691 
z
" id="m510a3dc0e2" style="stroke:#db5f57;stroke-opacity:0.99;"/>
    </defs>
    <g clip-path="url(#p7a2f676937)">
     <use style="fill:#db5f57;fill-opacity:0.99;stroke:#db5f57;stroke-opacity:0.99;" x="0" xlink:href="#m510a3dc0e2" y="367.218125"/>
    </g>
   </g>
   <g id="PolyCollection_2">
    <defs>
     <path d="M 53.886908 -169.515106 
L 53.886908 -98.194351 
L 59.740055 -98.194351 
L 59.740055 -169.515106 
L 59.740055 -169.515106 
L 53.886908 -169.515106 
z
" id="mfc4eb6b46b" style="stroke:#dbc257;stroke-opacity:0.99;"/>
    </defs>
    <g clip-path="url(#p7a2f676937)">
     <use style="fill:#dbc257;fill-opacity:0.99;stroke:#dbc257;stroke-opacity:0.99;" x="0" xlink:href="#mfc4eb6b46b" y="367.218125"/>
    </g>
   </g>
   <g id="PolyCollection_3">
    <defs>
     <path d="M 53.886908 -193.050955 
L 53.886908 -175.220767 
L 59.740055 -175.220767 
L 59.740055 -193.050955 
L 59.740055 -193.050955 
L 53.886908 -193.050955 
z
" id="m0ecc6d8ba8" style="stroke:#91db57;stroke-opacity:0.99;"/>
    </defs>
    <g clip-path="url(#p7a2f676937)">
     <use style="fill:#91db57;fill-opacity:0.99;stroke:#91db57;stroke-opacity:0.99;" x="0" xlink:href="#m0ecc6d8ba8" y="367.218125"/>
    </g>
   </g>
   <g id="PolyCollection_4">
    <defs>
     <path d="M 53.886908 -341.398125 
L 53.886908 -198.756616 
L 59.740055 -198.756616 
L 59.740055 -341.398125 
L 59.740055 -341.398125 
L 53.886908 -341.398125 
z
" id="medff75004e" style="stroke:#57db80;stroke-opacity:0.99;"/>
    </defs>
    <g clip-path="url(#p7a2f676937)">
     <use style="fill:#57db80;fill-opacity:0.99;stroke:#57db80;stroke-opacity:0.99;" x="0" xlink:href="#medff75004e" y="367.218125"/>
    </g>
   </g>
   <g id="PolyCollection_5">
    <defs>
     <path d="M 352.397397 -92.488691 
L 352.397397 -38.998125 
L 358.250544 -38.998125 
L 358.250544 -92.488691 
L 358.250544 -92.488691 
L 352.397397 -92.488691 
z
" id="m2a6ab16815" style="stroke:#57d3db;stroke-opacity:0.99;"/>
    </defs>
    <g clip-path="url(#p7a2f676937)">
     <use style="fill:#57d3db;fill-opacity:0.99;stroke:#57d3db;stroke-opacity:0.99;" x="0" xlink:href="#m2a6ab16815" y="367.218125"/>
    </g>
   </g>
   <g id="PolyCollection_6">
    <defs>
     <path d="M 352.397397 -169.515106 
L 352.397397 -98.194351 
L 358.250544 -98.194351 
L 358.250544 -169.515106 
L 358.250544 -169.515106 
L 352.397397 -169.515106 
z
" id="m3eebb9700d" style="stroke:#5770db;stroke-opacity:0.99;"/>
    </defs>
    <g clip-path="url(#p7a2f676937)">
     <use style="fill:#5770db;fill-opacity:0.99;stroke:#5770db;stroke-opacity:0.99;" x="0" xlink:href="#m3eebb9700d" y="367.218125"/>
    </g>
   </g>
   <g id="PolyCollection_7">
    <defs>
     <path d="M 352.397397 -193.050955 
L 352.397397 -175.220767 
L 358.250544 -175.220767 
L 358.250544 -193.050955 
L 358.250544 -193.050955 
L 352.397397 -193.050955 
z
" id="mdcde1cc396" style="stroke:#a157db;stroke-opacity:0.99;"/>
    </defs>
    <g clip-path="url(#p7a2f676937)">
     <use style="fill:#a157db;fill-opacity:0.99;stroke:#a157db;stroke-opacity:0.99;" x="0" xlink:href="#mdcde1cc396" y="367.218125"/>
    </g>
   </g>
   <g id="PolyCollection_8">
    <defs>
     <path d="M 352.397397 -341.398125 
L 352.397397 -198.756616 
L 358.250544 -198.756616 
L 358.250544 -341.398125 
L 358.250544 -341.398125 
L 352.397397 -341.398125 
z
" id="m9b9734de33" style="stroke:#db57b2;stroke-opacity:0.99;"/>
    </defs>
    <g clip-path="url(#p7a2f676937)">
     <use style="fill:#db57b2;fill-opacity:0.99;stroke:#db57b2;stroke-opacity:0.99;" x="0" xlink:href="#m9b9734de33" y="367.218125"/>
    </g>
   </g>
   <g id="PolyCollection_9">
    <defs>
     <path d="M 59.740055 -92.488691 
L 59.740055 -38.998125 
L 64.537716 -38.998125 
L 69.335377 -38.998125 
L 74.133039 -38.998125 
L 78.9307 -38.998125 
L 83.728361 -38.998125 
L 88.526023 -38.998125 
L 93.323684 -38.998125 
L 98.121345 -38.998125 
L 102.919007 -38.998125 
L 107.716668 -38.998125 
L 112.51433 -38.998125 
L 117.311991 -38.998125 
L 122.109652 -38.998125 
L 126.907314 -38.998125 
L 131.704975 -38.998125 
L 136.502636 -38.998125 
L 141.300298 -38.998125 
L 146.097959 -38.998125 
L 150.89562 -38.998125 
L 155.693282 -38.998125 
L 160.490943 -38.998125 
L 165.288604 -38.998125 
L 170.086266 -38.998125 
L 174.883927 -38.998125 
L 179.681589 -38.998125 
L 184.47925 -38.998125 
L 189.276911 -38.998125 
L 194.074573 -38.998125 
L 198.872234 -38.998125 
L 203.669895 -38.998125 
L 208.467557 -38.998125 
L 213.265218 -38.998125 
L 218.062879 -38.998125 
L 222.860541 -38.998125 
L 227.658202 -38.998125 
L 232.455863 -38.998125 
L 237.253525 -38.998125 
L 242.051186 -38.998125 
L 246.848847 -38.998125 
L 251.646509 -38.998125 
L 256.44417 -38.998125 
L 261.241832 -38.998125 
L 266.039493 -38.998125 
L 270.837154 -38.998125 
L 275.634816 -38.998125 
L 280.432477 -38.998125 
L 285.230138 -38.998125 
L 290.0278 -38.998125 
L 294.825461 -38.998125 
L 299.623122 -38.998125 
L 304.420784 -38.998125 
L 309.218445 -38.998125 
L 314.016106 -38.998125 
L 318.813768 -38.998125 
L 323.611429 -38.998125 
L 328.409091 -38.998125 
L 333.206752 -38.998125 
L 338.004413 -38.998125 
L 342.802075 -38.998125 
L 347.599736 -38.998125 
L 352.397397 -38.998125 
L 352.397397 -92.488691 
L 352.397397 -92.488691 
L 347.599736 -92.488691 
L 342.802075 -92.488691 
L 338.004413 -92.488691 
L 333.206752 -92.488691 
L 328.409091 -92.488691 
L 323.611429 -92.488691 
L 318.813768 -92.488691 
L 314.016106 -92.488691 
L 309.218445 -92.488691 
L 304.420784 -92.488691 
L 299.623122 -92.488691 
L 294.825461 -92.488691 
L 290.0278 -92.488691 
L 285.230138 -92.488691 
L 280.432477 -92.488691 
L 275.634816 -92.488691 
L 270.837154 -92.488691 
L 266.039493 -92.488691 
L 261.241832 -92.488691 
L 256.44417 -92.488691 
L 251.646509 -92.488691 
L 246.848847 -92.488691 
L 242.051186 -92.488691 
L 237.253525 -92.488691 
L 232.455863 -92.488691 
L 227.658202 -92.488691 
L 222.860541 -92.488691 
L 218.062879 -92.488691 
L 213.265218 -92.488691 
L 208.467557 -92.488691 
L 203.669895 -92.488691 
L 198.872234 -92.488691 
L 194.074573 -92.488691 
L 189.276911 -92.488691 
L 184.47925 -92.488691 
L 179.681589 -92.488691 
L 174.883927 -92.488691 
L 170.086266 -92.488691 
L 165.288604 -92.488691 
L 160.490943 -92.488691 
L 155.693282 -92.488691 
L 150.89562 -92.488691 
L 146.097959 -92.488691 
L 141.300298 -92.488691 
L 136.502636 -92.488691 
L 131.704975 -92.488691 
L 126.907314 -92.488691 
L 122.109652 -92.488691 
L 117.311991 -92.488691 
L 112.51433 -92.488691 
L 107.716668 -92.488691 
L 102.919007 -92.488691 
L 98.121345 -92.488691 
L 93.323684 -92.488691 
L 88.526023 -92.488691 
L 83.728361 -92.488691 
L 78.9307 -92.488691 
L 74.133039 -92.488691 
L 69.335377 -92.488691 
L 64.537716 -92.488691 
L 59.740055 -92.488691 
z
" id="mb120eb71cd" style="stroke:#db5f57;stroke-opacity:0.65;"/>
    </defs>
    <g clip-path="url(#p7a2f676937)">
     <use style="fill:#db5f57;fill-opacity:0.65;stroke:#db5f57;stroke-opacity:0.65;" x="0" xlink:href="#mb120eb71cd" y="367.218125"/>
    </g>
   </g>
   <g id="PolyCollection_10">
    <defs>
     <path d="M 59.740055 -169.515106 
L 59.740055 -98.194351 
L 64.537716 -98.194351 
L 69.335377 -98.194351 
L 74.133039 -98.194351 
L 78.9307 -98.194351 
L 83.728361 -98.194351 
L 88.526023 -98.194351 
L 93.323684 -98.194351 
L 98.121345 -98.194351 
L 102.919007 -98.194351 
L 107.716668 -98.194351 
L 112.51433 -98.194351 
L 117.311991 -98.194351 
L 122.109652 -98.194351 
L 126.907314 -98.194351 
L 131.704975 -98.194351 
L 136.502636 -98.194351 
L 141.300298 -98.194351 
L 146.097959 -98.194351 
L 150.89562 -98.194351 
L 155.693282 -98.194351 
L 160.490943 -98.194351 
L 165.288604 -98.194351 
L 170.086266 -98.194351 
L 174.883927 -98.194351 
L 179.681589 -98.194351 
L 184.47925 -98.194351 
L 189.276911 -98.194351 
L 194.074573 -98.194351 
L 198.872234 -98.194351 
L 203.669895 -98.194351 
L 208.467557 -98.194351 
L 213.265218 -98.194351 
L 218.062879 -98.194351 
L 222.860541 -98.194351 
L 227.658202 -98.194351 
L 232.455863 -98.194351 
L 237.253525 -98.194351 
L 242.051186 -98.194351 
L 246.848847 -98.194351 
L 251.646509 -98.194351 
L 256.44417 -98.194351 
L 261.241832 -98.194351 
L 266.039493 -98.194351 
L 270.837154 -98.194351 
L 275.634816 -98.194351 
L 280.432477 -98.194351 
L 285.230138 -98.194351 
L 290.0278 -98.194351 
L 294.825461 -98.194351 
L 299.623122 -98.194351 
L 304.420784 -98.194351 
L 309.218445 -98.194351 
L 314.016106 -98.194351 
L 318.813768 -98.194351 
L 323.611429 -98.194351 
L 328.409091 -98.194351 
L 333.206752 -98.194351 
L 338.004413 -98.194351 
L 342.802075 -98.194351 
L 347.599736 -98.194351 
L 352.397397 -98.194351 
L 352.397397 -169.515106 
L 352.397397 -169.515106 
L 347.599736 -169.515106 
L 342.802075 -169.515106 
L 338.004413 -169.515106 
L 333.206752 -169.515106 
L 328.409091 -169.515106 
L 323.611429 -169.515106 
L 318.813768 -169.515106 
L 314.016106 -169.515106 
L 309.218445 -169.515106 
L 304.420784 -169.515106 
L 299.623122 -169.515106 
L 294.825461 -169.515106 
L 290.0278 -169.515106 
L 285.230138 -169.515106 
L 280.432477 -169.515106 
L 275.634816 -169.515106 
L 270.837154 -169.515106 
L 266.039493 -169.515106 
L 261.241832 -169.515106 
L 256.44417 -169.515106 
L 251.646509 -169.515106 
L 246.848847 -169.515106 
L 242.051186 -169.515106 
L 237.253525 -169.515106 
L 232.455863 -169.515106 
L 227.658202 -169.515106 
L 222.860541 -169.515106 
L 218.062879 -169.515106 
L 213.265218 -169.515106 
L 208.467557 -169.515106 
L 203.669895 -169.515106 
L 198.872234 -169.515106 
L 194.074573 -169.515106 
L 189.276911 -169.515106 
L 184.47925 -169.515106 
L 179.681589 -169.515106 
L 174.883927 -169.515106 
L 170.086266 -169.515106 
L 165.288604 -169.515106 
L 160.490943 -169.515106 
L 155.693282 -169.515106 
L 150.89562 -169.515106 
L 146.097959 -169.515106 
L 141.300298 -169.515106 
L 136.502636 -169.515106 
L 131.704975 -169.515106 
L 126.907314 -169.515106 
L 122.109652 -169.515106 
L 117.311991 -169.515106 
L 112.51433 -169.515106 
L 107.716668 -169.515106 
L 102.919007 -169.515106 
L 98.121345 -169.515106 
L 93.323684 -169.515106 
L 88.526023 -169.515106 
L 83.728361 -169.515106 
L 78.9307 -169.515106 
L 74.133039 -169.515106 
L 69.335377 -169.515106 
L 64.537716 -169.515106 
L 59.740055 -169.515106 
z
" id="m172fd3fa39" style="stroke:#dbc257;stroke-opacity:0.65;"/>
    </defs>
    <g clip-path="url(#p7a2f676937)">
     <use style="fill:#dbc257;fill-opacity:0.65;stroke:#dbc257;stroke-opacity:0.65;" x="0" xlink:href="#m172fd3fa39" y="367.218125"/>
    </g>
   </g>
   <g id="PolyCollection_11">
    <defs>
     <path d="M 59.740055 -193.050955 
L 59.740055 -175.220767 
L 64.537716 -175.220767 
L 69.335377 -175.220767 
L 74.133039 -175.220767 
L 78.9307 -175.220767 
L 83.728361 -175.220767 
L 88.526023 -175.220767 
L 93.323684 -175.220767 
L 98.121345 -175.220767 
L 102.919007 -175.220767 
L 107.716668 -175.220767 
L 112.51433 -175.220767 
L 117.311991 -175.220767 
L 122.109652 -175.220767 
L 126.907314 -175.220767 
L 131.704975 -175.220767 
L 136.502636 -175.220767 
L 141.300298 -175.220767 
L 146.097959 -175.220767 
L 150.89562 -175.220767 
L 155.693282 -175.220767 
L 160.490943 -175.220767 
L 165.288604 -175.220767 
L 170.086266 -175.220767 
L 174.883927 -175.220767 
L 179.681589 -175.220767 
L 184.47925 -175.220767 
L 189.276911 -175.220767 
L 194.074573 -175.220767 
L 198.872234 -175.220767 
L 203.669895 -175.220767 
L 208.467557 -175.220767 
L 213.265218 -175.220767 
L 218.062879 -175.220767 
L 222.860541 -175.220767 
L 227.658202 -175.220767 
L 232.455863 -175.220767 
L 237.253525 -175.220767 
L 242.051186 -175.220767 
L 246.848847 -175.220767 
L 251.646509 -175.220767 
L 256.44417 -175.220767 
L 261.241832 -175.220767 
L 266.039493 -175.220767 
L 270.837154 -175.220767 
L 275.634816 -175.220767 
L 280.432477 -175.220767 
L 285.230138 -175.220767 
L 290.0278 -175.220767 
L 294.825461 -175.220767 
L 299.623122 -175.220767 
L 304.420784 -175.220767 
L 309.218445 -175.220767 
L 314.016106 -175.220767 
L 318.813768 -175.220767 
L 323.611429 -175.220767 
L 328.409091 -175.220767 
L 333.206752 -175.220767 
L 338.004413 -175.220767 
L 342.802075 -175.220767 
L 347.599736 -175.220767 
L 352.397397 -175.220767 
L 352.397397 -193.050955 
L 352.397397 -193.050955 
L 347.599736 -193.050955 
L 342.802075 -193.050955 
L 338.004413 -193.050955 
L 333.206752 -193.050955 
L 328.409091 -193.050955 
L 323.611429 -193.050955 
L 318.813768 -193.050955 
L 314.016106 -193.050955 
L 309.218445 -193.050955 
L 304.420784 -193.050955 
L 299.623122 -193.050955 
L 294.825461 -193.050955 
L 290.0278 -193.050955 
L 285.230138 -193.050955 
L 280.432477 -193.050955 
L 275.634816 -193.050955 
L 270.837154 -193.050955 
L 266.039493 -193.050955 
L 261.241832 -193.050955 
L 256.44417 -193.050955 
L 251.646509 -193.050955 
L 246.848847 -193.050955 
L 242.051186 -193.050955 
L 237.253525 -193.050955 
L 232.455863 -193.050955 
L 227.658202 -193.050955 
L 222.860541 -193.050955 
L 218.062879 -193.050955 
L 213.265218 -193.050955 
L 208.467557 -193.050955 
L 203.669895 -193.050955 
L 198.872234 -193.050955 
L 194.074573 -193.050955 
L 189.276911 -193.050955 
L 184.47925 -193.050955 
L 179.681589 -193.050955 
L 174.883927 -193.050955 
L 170.086266 -193.050955 
L 165.288604 -193.050955 
L 160.490943 -193.050955 
L 155.693282 -193.050955 
L 150.89562 -193.050955 
L 146.097959 -193.050955 
L 141.300298 -193.050955 
L 136.502636 -193.050955 
L 131.704975 -193.050955 
L 126.907314 -193.050955 
L 122.109652 -193.050955 
L 117.311991 -193.050955 
L 112.51433 -193.050955 
L 107.716668 -193.050955 
L 102.919007 -193.050955 
L 98.121345 -193.050955 
L 93.323684 -193.050955 
L 88.526023 -193.050955 
L 83.728361 -193.050955 
L 78.9307 -193.050955 
L 74.133039 -193.050955 
L 69.335377 -193.050955 
L 64.537716 -193.050955 
L 59.740055 -193.050955 
z
" id="m2425ecb9b0" style="stroke:#91db57;stroke-opacity:0.65;"/>
    </defs>
    <g clip-path="url(#p7a2f676937)">
     <use style="fill:#91db57;fill-opacity:0.65;stroke:#91db57;stroke-opacity:0.65;" x="0" xlink:href="#m2425ecb9b0" y="367.218125"/>
    </g>
   </g>
   <g id="PolyCollection_12">
    <defs>
     <path d="M 59.740055 -341.398125 
L 59.740055 -198.756616 
L 64.537716 -198.756616 
L 69.335377 -198.756616 
L 74.133039 -198.756616 
L 78.9307 -198.756616 
L 83.728361 -198.756616 
L 88.526023 -198.756616 
L 93.323684 -198.756616 
L 98.121345 -198.756616 
L 102.919007 -198.756616 
L 107.716668 -198.756616 
L 112.51433 -198.756616 
L 117.311991 -198.756616 
L 122.109652 -198.756616 
L 126.907314 -198.756616 
L 131.704975 -198.756616 
L 136.502636 -198.756616 
L 141.300298 -198.756616 
L 146.097959 -198.756616 
L 150.89562 -198.756616 
L 155.693282 -198.756616 
L 160.490943 -198.756616 
L 165.288604 -198.756616 
L 170.086266 -198.756616 
L 174.883927 -198.756616 
L 179.681589 -198.756616 
L 184.47925 -198.756616 
L 189.276911 -198.756616 
L 194.074573 -198.756616 
L 198.872234 -198.756616 
L 203.669895 -198.756616 
L 208.467557 -198.756616 
L 213.265218 -198.756616 
L 218.062879 -198.756616 
L 222.860541 -198.756616 
L 227.658202 -198.756616 
L 232.455863 -198.756616 
L 237.253525 -198.756616 
L 242.051186 -198.756616 
L 246.848847 -198.756616 
L 251.646509 -198.756616 
L 256.44417 -198.756616 
L 261.241832 -198.756616 
L 266.039493 -198.756616 
L 270.837154 -198.756616 
L 275.634816 -198.756616 
L 280.432477 -198.756616 
L 285.230138 -198.756616 
L 290.0278 -198.756616 
L 294.825461 -198.756616 
L 299.623122 -198.756616 
L 304.420784 -198.756616 
L 309.218445 -198.756616 
L 314.016106 -198.756616 
L 318.813768 -198.756616 
L 323.611429 -198.756616 
L 328.409091 -198.756616 
L 333.206752 -198.756616 
L 338.004413 -198.756616 
L 342.802075 -198.756616 
L 347.599736 -198.756616 
L 352.397397 -198.756616 
L 352.397397 -341.398125 
L 352.397397 -341.398125 
L 347.599736 -341.398125 
L 342.802075 -341.398125 
L 338.004413 -341.398125 
L 333.206752 -341.398125 
L 328.409091 -341.398125 
L 323.611429 -341.398125 
L 318.813768 -341.398125 
L 314.016106 -341.398125 
L 309.218445 -341.398125 
L 304.420784 -341.398125 
L 299.623122 -341.398125 
L 294.825461 -341.398125 
L 290.0278 -341.398125 
L 285.230138 -341.398125 
L 280.432477 -341.398125 
L 275.634816 -341.398125 
L 270.837154 -341.398125 
L 266.039493 -341.398125 
L 261.241832 -341.398125 
L 256.44417 -341.398125 
L 251.646509 -341.398125 
L 246.848847 -341.398125 
L 242.051186 -341.398125 
L 237.253525 -341.398125 
L 232.455863 -341.398125 
L 227.658202 -341.398125 
L 222.860541 -341.398125 
L 218.062879 -341.398125 
L 213.265218 -341.398125 
L 208.467557 -341.398125 
L 203.669895 -341.398125 
L 198.872234 -341.398125 
L 194.074573 -341.398125 
L 189.276911 -341.398125 
L 184.47925 -341.398125 
L 179.681589 -341.398125 
L 174.883927 -341.398125 
L 170.086266 -341.398125 
L 165.288604 -341.398125 
L 160.490943 -341.398125 
L 155.693282 -341.398125 
L 150.89562 -341.398125 
L 146.097959 -341.398125 
L 141.300298 -341.398125 
L 136.502636 -341.398125 
L 131.704975 -341.398125 
L 126.907314 -341.398125 
L 122.109652 -341.398125 
L 117.311991 -341.398125 
L 112.51433 -341.398125 
L 107.716668 -341.398125 
L 102.919007 -341.398125 
L 98.121345 -341.398125 
L 93.323684 -341.398125 
L 88.526023 -341.398125 
L 83.728361 -341.398125 
L 78.9307 -341.398125 
L 74.133039 -341.398125 
L 69.335377 -341.398125 
L 64.537716 -341.398125 
L 59.740055 -341.398125 
z
" id="mbaabfbe1d5" style="stroke:#57db80;stroke-opacity:0.65;"/>
    </defs>
    <g clip-path="url(#p7a2f676937)">
     <use style="fill:#57db80;fill-opacity:0.65;stroke:#57db80;stroke-opacity:0.65;" x="0" xlink:href="#mbaabfbe1d5" y="367.218125"/>
    </g>
   </g>
   <g id="text_1">
    <!-- one -->
    <defs>
     <path d="M 30.078125 3.421875 
Q 37.3125 3.421875 40.984375 9.125 
Q 44.671875 14.84375 44.671875 25.984375 
Q 44.671875 37.109375 40.984375 42.796875 
Q 37.3125 48.484375 30.078125 48.484375 
Q 22.859375 48.484375 19.171875 42.796875 
Q 15.484375 37.109375 15.484375 25.984375 
Q 15.484375 14.84375 19.1875 9.125 
Q 22.90625 3.421875 30.078125 3.421875 
z
M 30.078125 -1.421875 
Q 18.75 -1.421875 11.859375 6.078125 
Q 4.984375 13.578125 4.984375 25.984375 
Q 4.984375 38.375 11.84375 45.84375 
Q 18.703125 53.328125 30.078125 53.328125 
Q 41.453125 53.328125 48.3125 45.84375 
Q 55.171875 38.375 55.171875 25.984375 
Q 55.171875 13.578125 48.3125 6.078125 
Q 41.453125 -1.421875 30.078125 -1.421875 
z
" id="DejaVuSerif-6f"/>
     <path d="M 4.109375 0 
L 4.109375 5.171875 
L 12.203125 5.171875 
L 12.203125 46.6875 
L 3.609375 46.6875 
L 3.609375 51.90625 
L 21.1875 51.90625 
L 21.1875 42.671875 
Q 23.6875 47.953125 27.65625 50.640625 
Q 31.640625 53.328125 36.921875 53.328125 
Q 45.515625 53.328125 49.5625 48.390625 
Q 53.609375 43.453125 53.609375 33.015625 
L 53.609375 5.171875 
L 61.625 5.171875 
L 61.625 0 
L 36.8125 0 
L 36.8125 5.171875 
L 44.578125 5.171875 
L 44.578125 30.171875 
Q 44.578125 39.703125 42.234375 43.234375 
Q 39.890625 46.78125 33.984375 46.78125 
Q 27.734375 46.78125 24.453125 42.203125 
Q 21.1875 37.640625 21.1875 28.90625 
L 21.1875 5.171875 
L 29 5.171875 
L 29 0 
z
" id="DejaVuSerif-6e"/>
     <path d="M 54.203125 25 
L 15.484375 25 
L 15.484375 24.609375 
Q 15.484375 14.109375 19.4375 8.765625 
Q 23.390625 3.421875 31.109375 3.421875 
Q 37.015625 3.421875 40.796875 6.515625 
Q 44.578125 9.625 46.09375 15.71875 
L 53.328125 15.71875 
Q 51.171875 7.171875 45.375 2.875 
Q 39.59375 -1.421875 30.171875 -1.421875 
Q 18.796875 -1.421875 11.890625 6.078125 
Q 4.984375 13.578125 4.984375 25.984375 
Q 4.984375 38.28125 11.765625 45.796875 
Q 18.5625 53.328125 29.59375 53.328125 
Q 41.359375 53.328125 47.65625 46.0625 
Q 53.953125 38.8125 54.203125 25 
z
M 43.609375 30.171875 
Q 43.3125 39.265625 39.765625 43.875 
Q 36.234375 48.484375 29.59375 48.484375 
Q 23.390625 48.484375 19.828125 43.84375 
Q 16.265625 39.203125 15.484375 30.171875 
z
" id="DejaVuSerif-65"/>
    </defs>
    <g transform="translate(19.375625 305.337842)scale(0.14 -0.14)">
     <use xlink:href="#DejaVuSerif-6f"/>
     <use x="60.205078" xlink:href="#DejaVuSerif-6e"/>
     <use x="124.609375" xlink:href="#DejaVuSerif-65"/>
    </g>
   </g>
   <g id="text_2">
    <!-- two -->
    <defs>
     <path d="M 10.796875 46.6875 
L 2.875 46.6875 
L 2.875 51.90625 
L 10.796875 51.90625 
L 10.796875 68.015625 
L 19.828125 68.015625 
L 19.828125 51.90625 
L 36.71875 51.90625 
L 36.71875 46.6875 
L 19.828125 46.6875 
L 19.828125 13.71875 
Q 19.828125 7.125 21.09375 5.265625 
Q 22.359375 3.421875 25.78125 3.421875 
Q 29.296875 3.421875 30.90625 5.484375 
Q 32.515625 7.5625 32.625 12.203125 
L 39.40625 12.203125 
Q 39.015625 5.125 35.546875 1.84375 
Q 32.078125 -1.421875 25 -1.421875 
Q 17.234375 -1.421875 14.015625 2.015625 
Q 10.796875 5.46875 10.796875 13.71875 
z
" id="DejaVuSerif-74"/>
     <path d="M 48 51.90625 
L 61.28125 11.375 
L 73 46.6875 
L 65.484375 46.6875 
L 65.484375 51.90625 
L 84.28125 51.90625 
L 84.28125 46.6875 
L 78.515625 46.6875 
L 63.09375 0 
L 55.609375 0 
L 42.828125 38.8125 
L 29.984375 0 
L 22.796875 0 
L 7.421875 46.6875 
L 1.609375 46.6875 
L 1.609375 51.90625 
L 25.09375 51.90625 
L 25.09375 46.6875 
L 16.703125 46.6875 
L 28.328125 11.375 
L 41.703125 51.90625 
z
" id="DejaVuSerif-77"/>
    </defs>
    <g transform="translate(19.069375 237.226521)scale(0.14 -0.14)">
     <use xlink:href="#DejaVuSerif-74"/>
     <use x="40.185547" xlink:href="#DejaVuSerif-77"/>
     <use x="125.78125" xlink:href="#DejaVuSerif-6f"/>
    </g>
   </g>
   <g id="text_3">
    <!-- three -->
    <defs>
     <path d="M 4.109375 0 
L 4.109375 5.171875 
L 12.203125 5.171875 
L 12.203125 70.796875 
L 3.609375 70.796875 
L 3.609375 75.984375 
L 21.1875 75.984375 
L 21.1875 42.671875 
Q 23.6875 47.953125 27.65625 50.640625 
Q 31.640625 53.328125 36.921875 53.328125 
Q 45.515625 53.328125 49.5625 48.390625 
Q 53.609375 43.453125 53.609375 33.015625 
L 53.609375 5.171875 
L 61.625 5.171875 
L 61.625 0 
L 36.8125 0 
L 36.8125 5.171875 
L 44.578125 5.171875 
L 44.578125 30.171875 
Q 44.578125 39.703125 42.25 43.1875 
Q 39.9375 46.6875 33.984375 46.6875 
Q 27.734375 46.6875 24.453125 42.140625 
Q 21.1875 37.59375 21.1875 28.90625 
L 21.1875 5.171875 
L 29 5.171875 
L 29 0 
z
" id="DejaVuSerif-68"/>
     <path d="M 47.796875 52 
L 47.796875 39.015625 
L 42.625 39.015625 
Q 42.390625 42.875 40.484375 44.78125 
Q 38.578125 46.6875 34.90625 46.6875 
Q 28.265625 46.6875 24.71875 42.09375 
Q 21.1875 37.5 21.1875 28.90625 
L 21.1875 5.171875 
L 31.59375 5.171875 
L 31.59375 0 
L 4.109375 0 
L 4.109375 5.171875 
L 12.203125 5.171875 
L 12.203125 46.78125 
L 3.609375 46.78125 
L 3.609375 51.90625 
L 21.1875 51.90625 
L 21.1875 42.671875 
Q 23.828125 48.09375 27.96875 50.703125 
Q 32.125 53.328125 38.09375 53.328125 
Q 40.28125 53.328125 42.703125 52.984375 
Q 45.125 52.640625 47.796875 52 
z
" id="DejaVuSerif-72"/>
    </defs>
    <g transform="translate(7.2 186.945389)scale(0.14 -0.14)">
     <use xlink:href="#DejaVuSerif-74"/>
     <use x="40.185547" xlink:href="#DejaVuSerif-68"/>
     <use x="104.589844" xlink:href="#DejaVuSerif-72"/>
     <use x="152.392578" xlink:href="#DejaVuSerif-65"/>
     <use x="211.572266" xlink:href="#DejaVuSerif-65"/>
    </g>
   </g>
   <g id="text_4">
    <!-- four -->
    <defs>
     <path d="M 43.015625 63.71875 
L 38.28125 63.71875 
Q 38.234375 67.390625 36.203125 69.28125 
Q 34.1875 71.1875 30.328125 71.1875 
Q 25.296875 71.1875 23.234375 68.421875 
Q 21.1875 65.671875 21.1875 58.59375 
L 21.1875 51.90625 
L 35.6875 51.90625 
L 35.6875 46.6875 
L 21.1875 46.6875 
L 21.1875 5.171875 
L 32.71875 5.171875 
L 32.71875 0 
L 3.609375 0 
L 3.609375 5.171875 
L 12.203125 5.171875 
L 12.203125 46.6875 
L 3.609375 46.6875 
L 3.609375 51.90625 
L 12.203125 51.90625 
L 12.203125 58.40625 
Q 12.203125 67.09375 16.71875 71.53125 
Q 21.234375 75.984375 29.984375 75.984375 
Q 33.25 75.984375 36.515625 75.390625 
Q 39.796875 74.8125 43.015625 73.578125 
z
" id="DejaVuSerif-66"/>
     <path d="M 35.40625 51.90625 
L 52.203125 51.90625 
L 52.203125 5.171875 
L 60.6875 5.171875 
L 60.6875 0 
L 43.21875 0 
L 43.21875 9.1875 
Q 40.71875 4 36.765625 1.28125 
Q 32.8125 -1.421875 27.59375 -1.421875 
Q 18.953125 -1.421875 14.875 3.484375 
Q 10.796875 8.40625 10.796875 18.890625 
L 10.796875 46.6875 
L 2.6875 46.6875 
L 2.6875 51.90625 
L 19.828125 51.90625 
L 19.828125 21.6875 
Q 19.828125 12.203125 22.140625 8.6875 
Q 24.46875 5.171875 30.421875 5.171875 
Q 36.671875 5.171875 39.9375 9.765625 
Q 43.21875 14.359375 43.21875 23.09375 
L 43.21875 46.6875 
L 35.40625 46.6875 
z
" id="DejaVuSerif-75"/>
    </defs>
    <g transform="translate(15.788125 101.00388)scale(0.14 -0.14)">
     <use xlink:href="#DejaVuSerif-66"/>
     <use x="37.011719" xlink:href="#DejaVuSerif-6f"/>
     <use x="97.216797" xlink:href="#DejaVuSerif-75"/>
     <use x="161.621094" xlink:href="#DejaVuSerif-72"/>
    </g>
   </g>
   <g id="text_5">
    <!-- fee -->
    <g transform="translate(367.030264 305.337842)scale(0.14 -0.14)">
     <use xlink:href="#DejaVuSerif-66"/>
     <use x="37.011719" xlink:href="#DejaVuSerif-65"/>
     <use x="96.191406" xlink:href="#DejaVuSerif-65"/>
    </g>
   </g>
   <g id="text_6">
    <!-- fy -->
    <defs>
     <path d="M 21.578125 -9.515625 
L 25 -0.875 
L 5.609375 46.6875 
L -0.296875 46.6875 
L -0.296875 51.90625 
L 23.578125 51.90625 
L 23.578125 46.6875 
L 15.28125 46.6875 
L 29.890625 10.984375 
L 44.484375 46.6875 
L 36.71875 46.6875 
L 36.71875 51.90625 
L 56.203125 51.90625 
L 56.203125 46.6875 
L 50.390625 46.6875 
L 26.609375 -11.71875 
Q 24.171875 -17.78125 21.1875 -20 
Q 18.21875 -22.21875 12.796875 -22.21875 
Q 10.5 -22.21875 8.078125 -21.828125 
Q 5.671875 -21.4375 3.21875 -20.703125 
L 3.21875 -10.796875 
L 7.8125 -10.796875 
Q 8.109375 -14.109375 9.5 -15.546875 
Q 10.890625 -17 13.8125 -17 
Q 16.5 -17 18.140625 -15.5 
Q 19.78125 -14.015625 21.578125 -9.515625 
z
" id="DejaVuSerif-79"/>
    </defs>
    <g transform="translate(367.030264 237.12699)scale(0.14 -0.14)">
     <use xlink:href="#DejaVuSerif-66"/>
     <use x="37.011719" xlink:href="#DejaVuSerif-79"/>
    </g>
   </g>
   <g id="text_7">
    <!-- fo -->
    <g transform="translate(367.030264 186.945389)scale(0.14 -0.14)">
     <use xlink:href="#DejaVuSerif-66"/>
     <use x="37.011719" xlink:href="#DejaVuSerif-6f"/>
    </g>
   </g>
   <g id="text_8">
    <!-- fumb -->
    <defs>
     <path d="M 51.8125 41.796875 
Q 54.390625 47.515625 58.421875 50.421875 
Q 62.453125 53.328125 67.828125 53.328125 
Q 75.984375 53.328125 79.984375 48.265625 
Q 83.984375 43.21875 83.984375 33.015625 
L 83.984375 5.171875 
L 92.09375 5.171875 
L 92.09375 0 
L 67.1875 0 
L 67.1875 5.171875 
L 75 5.171875 
L 75 31.984375 
Q 75 39.9375 72.65625 43.3125 
Q 70.3125 46.6875 64.890625 46.6875 
Q 58.890625 46.6875 55.734375 42.140625 
Q 52.59375 37.59375 52.59375 28.90625 
L 52.59375 5.171875 
L 60.40625 5.171875 
L 60.40625 0 
L 35.796875 0 
L 35.796875 5.171875 
L 43.609375 5.171875 
L 43.609375 32.328125 
Q 43.609375 40.09375 41.265625 43.390625 
Q 38.921875 46.6875 33.5 46.6875 
Q 27.484375 46.6875 24.328125 42.140625 
Q 21.1875 37.59375 21.1875 28.90625 
L 21.1875 5.171875 
L 29 5.171875 
L 29 0 
L 4.109375 0 
L 4.109375 5.171875 
L 12.203125 5.171875 
L 12.203125 46.78125 
L 3.609375 46.78125 
L 3.609375 51.90625 
L 21.1875 51.90625 
L 21.1875 42.671875 
Q 23.6875 47.859375 27.53125 50.59375 
Q 31.390625 53.328125 36.28125 53.328125 
Q 42.328125 53.328125 46.375 50.3125 
Q 50.4375 47.3125 51.8125 41.796875 
z
" id="DejaVuSerif-6d"/>
     <path d="M 11.53125 5.171875 
L 11.53125 70.796875 
L 2.875 70.796875 
L 2.875 75.984375 
L 20.515625 75.984375 
L 20.515625 43.796875 
Q 23.140625 48.6875 27.21875 51 
Q 31.296875 53.328125 37.3125 53.328125 
Q 46.875 53.328125 52.921875 45.75 
Q 58.984375 38.1875 58.984375 25.984375 
Q 58.984375 13.765625 52.921875 6.171875 
Q 46.875 -1.421875 37.3125 -1.421875 
Q 31.296875 -1.421875 27.21875 0.890625 
Q 23.140625 3.21875 20.515625 8.109375 
L 20.515625 0 
L 2.875 0 
L 2.875 5.171875 
z
M 20.515625 23.390625 
Q 20.515625 14.015625 24.09375 9.109375 
Q 27.6875 4.203125 34.515625 4.203125 
Q 41.40625 4.203125 44.9375 9.71875 
Q 48.484375 15.234375 48.484375 25.984375 
Q 48.484375 36.765625 44.9375 42.234375 
Q 41.40625 47.703125 34.515625 47.703125 
Q 27.6875 47.703125 24.09375 42.765625 
Q 20.515625 37.84375 20.515625 28.515625 
z
" id="DejaVuSerif-62"/>
    </defs>
    <g transform="translate(367.030264 101.00388)scale(0.14 -0.14)">
     <use xlink:href="#DejaVuSerif-66"/>
     <use x="37.011719" xlink:href="#DejaVuSerif-75"/>
     <use x="101.416016" xlink:href="#DejaVuSerif-6d"/>
     <use x="196.240234" xlink:href="#DejaVuSerif-62"/>
    </g>
   </g>
  </g>
 </g>
 <defs>
  <clipPath id="p7a2f676937">
   <rect height="332.64" width="334.8" x="38.668726" y="10.7"/>
  </clipPath>
 </defs>
</svg>
